#N canvas 532 52 594 638 10;
#X msg 110 69 devices;
#X msg 169 93 close;
#X floatatom 110 243 5 0 0 0 - - -;
#X msg 198 43 1;
#X msg 169 43 0;
#X msg 169 69 open \$1;
#X floatatom 167 245 5 0 0 0 - - -;
#X obj 110 134 comport 1 9600;
#X obj 110 210 unpack f f;
#X obj 110 172 repack;
#N canvas 533 23 737 791 xy 0;
#X floatatom 91 57 5 0 0 0 - - -;
#X floatatom 91 155 5 0 0 0 - - -;
#X obj 91 100 expr 1 - $f1;
#X obj 91 122 / 2;
#X floatatom 187 59 5 0 0 0 - - -;
#X floatatom 187 186 5 0 0 0 - - -;
#X obj 187 100 expr 1 - $f1;
#X obj 187 122 / 2;
#X obj 91 310 +;
#X floatatom 91 350 5 0 0 0 - - -;
#X text 63 86 x;
#X text 273 87 y;
#X obj 187 154 bng 15 250 50 0 empty empty empty 17 7 0 10 -262144
-1 -1;
#X obj 91 201 +;
#X obj 188 223 / 2;
#X floatatom 91 227 5 0 0 0 - - -;
#X obj 187 414 +;
#X obj 187 376 / 2;
#X floatatom 187 451 5 0 0 0 - - -;
#X obj 187 282 +;
#X obj 187 257 / 2;
#X obj 211 257 / 2;
#X floatatom 187 316 5 0 0 0 - - -;
#X text 253 343 front right;
#X text 22 259 front left;
#X text 31 374 back left;
#X text 229 455 back right;
#X obj 91 35 inlet x;
#X obj 187 35 inlet y;
#X obj 90 256 outlet fl;
#X obj 91 376 outlet bl;
#X obj 187 339 outlet fr;
#X obj 187 476 outlet br;
#X obj 91 78 / 450;
#X obj 187 78 / 450;
#X text 310 26 x=x/450(1-$f1)/2;
#X text 310 42 y=y/450(1-$f1)/2;
#X text 438 258 BR = (((1 / (y / 450)) / 2) + ((x / 450) / 2);
#X text 438 232 FR = ((Y / 450) / 2) + ((x / 450) / 2);
#X text 439 285 FL = (( y / 450) / 2) + (1 / (x / 450) /2);
#X text 440 316 BL = (1 / (y / 450) / 2) + (1 / (x / 450) / 2);
#N canvas 607 386 391 339 math 0;
#X obj 15 51 grid grid1 200 0 300 200 0 300 1 1 1 10 10 115 151;
#X text 113 267 x;
#X text -15 133 y;
#X text 221 44 Back Left;
#X text -37 30 Back Right;
#X text 189 271 Front Left;
#X text -33 278 Front Right;
#X text 2 251 0;
#X floatatom 21 256 5 0 0 0 - - -;
#X floatatom 225 253 5 0 0 0 - - -;
#X connect 0 0 8 0;
#X connect 0 1 9 0;
#X restore 643 752 pd math;
#N canvas 182 349 504 425 sound_test 0;
#X obj 306 213 *~;
#X obj 321 92 tgl 15 0 empty empty empty 17 7 0 10 -262144 -1 -1 0
1;
#X obj 306 241 *~;
#X obj 393 214 *~;
#X obj 408 103 tgl 15 0 empty empty empty 17 7 0 10 -262144 -1 -1 0
1;
#X obj 393 242 *~;
#X obj 306 267 dac~ 2;
#X obj 393 274 dac~ 6;
#X obj 306 186 osc~ 592;
#X obj 393 187 osc~ 493.88;
#X obj 408 156 line~;
#X msg 408 132 \$1 100;
#X obj 321 158 line~;
#X msg 321 130 \$1 100;
#X obj 76 215 *~;
#X obj 91 103 tgl 15 0 empty empty empty 17 7 0 10 -262144 -1 -1 0
1;
#X obj 76 243 *~;
#X obj 76 275 dac~ 1;
#X obj 186 220 *~;
#X obj 201 111 tgl 15 0 empty empty empty 17 7 0 10 -262144 -1 -1 0
1;
#X obj 186 248 *~;
#X obj 186 280 dac~ 5;
#X obj 76 188 osc~ 523.25;
#X obj 186 193 osc~ 329.63;
#X obj 201 160 line~;
#X msg 201 138 \$1 100;
#X obj 91 151 line~;
#X msg 91 127 \$1 100;
#X obj 121 213 inlet;
#X obj 215 214 inlet;
#X obj 345 211 inlet;
#X obj 428 213 inlet;
#X obj 203 41 inlet on/off;
#X text 78 341 Attach all inlets to number each speaker's number box
to test sound;
#X connect 0 0 2 0;
#X connect 1 0 0 1;
#X connect 1 0 13 0;
#X connect 2 0 6 0;
#X connect 3 0 5 0;
#X connect 4 0 3 1;
#X connect 4 0 11 0;
#X connect 5 0 7 0;
#X connect 8 0 0 0;
#X connect 9 0 3 0;
#X connect 10 0 3 1;
#X connect 11 0 10 0;
#X connect 12 0 0 1;
#X connect 13 0 12 0;
#X connect 14 0 16 0;
#X connect 15 0 14 1;
#X connect 15 0 27 0;
#X connect 16 0 17 0;
#X connect 18 0 20 0;
#X connect 19 0 18 1;
#X connect 19 0 25 0;
#X connect 20 0 21 0;
#X connect 22 0 14 0;
#X connect 23 0 18 0;
#X connect 24 0 18 1;
#X connect 25 0 24 0;
#X connect 26 0 14 1;
#X connect 27 0 26 0;
#X connect 28 0 16 1;
#X connect 29 0 20 1;
#X connect 30 0 2 1;
#X connect 31 0 5 1;
#X connect 32 0 15 0;
#X connect 32 0 19 0;
#X connect 32 0 1 0;
#X connect 32 0 4 0;
#X restore 643 730 pd sound_test;
#X connect 0 0 33 0;
#X connect 1 0 8 0;
#X connect 1 0 13 0;
#X connect 2 0 3 0;
#X connect 3 0 1 0;
#X connect 4 0 12 0;
#X connect 4 0 34 0;
#X connect 5 0 8 1;
#X connect 6 0 7 0;
#X connect 7 0 5 0;
#X connect 7 0 16 1;
#X connect 8 0 9 0;
#X connect 9 0 30 0;
#X connect 12 0 8 0;
#X connect 12 0 13 0;
#X connect 12 0 16 0;
#X connect 12 0 19 0;
#X connect 13 0 15 0;
#X connect 14 0 13 1;
#X connect 15 0 29 0;
#X connect 16 0 18 0;
#X connect 17 0 16 0;
#X connect 18 0 32 0;
#X connect 19 0 22 0;
#X connect 20 0 19 0;
#X connect 21 0 19 1;
#X connect 22 0 31 0;
#X connect 27 0 0 0;
#X connect 28 0 4 0;
#X connect 33 0 2 0;
#X connect 33 0 17 0;
#X connect 33 0 20 0;
#X connect 34 0 6 0;
#X connect 34 0 14 0;
#X connect 34 0 21 0;
#X restore 110 285 pd xy;
#N canvas 532 23 555 578 spigot_test 0;
#X floatatom 78 374 5 0 0 0 - - -;
#X obj 45 463 tgl 15 0 empty empty empty 17 7 0 10 -262144 -1 -1 0
129;
#X obj 45 401 spigot;
#X obj 35 341 >= 1;
#X obj 69 341 <= 25;
#X floatatom 30 423 5 0 0 0 - - -;
#X floatatom 172 375 5 0 0 0 - - -;
#X obj 139 403 spigot;
#X floatatom 134 431 5 0 0 0 - - -;
#X obj 138 341 >= 26;
#X obj 177 341 <= 50;
#X obj 30 607 *~ 0.3;
#X obj 71 511 line~;
#X obj 30 577 *~;
#X obj 30 547 osc~;
#X floatatom 25 501 5 0 0 0 - - -;
#X obj 140 465 tgl 15 0 empty empty empty 17 7 0 10 -262144 -1 -1 0
240;
#X obj 125 609 *~ 0.3;
#X obj 166 513 line~;
#X obj 125 579 *~;
#X obj 125 549 osc~;
#X floatatom 121 523 5 0 0 0 - - -;
#X msg 71 487 \$1 100;
#X msg 166 489 \$1 100;
#X floatatom 371 372 5 0 0 0 - - -;
#X obj 338 400 spigot;
#X floatatom 333 428 5 0 0 0 - - -;
#X obj 337 338 >= 26;
#X obj 376 338 <= 50;
#X obj 339 462 tgl 15 0 empty empty empty 17 7 0 10 -262144 -1 -1 0
193;
#X obj 324 606 *~ 0.3;
#X obj 365 510 line~;
#X obj 324 576 *~;
#X obj 324 546 osc~;
#X floatatom 320 520 5 0 0 0 - - -;
#X msg 365 486 \$1 100;
#X floatatom 279 373 5 0 0 0 - - -;
#X obj 246 462 tgl 15 0 empty empty empty 17 7 0 10 -262144 -1 -1 0
174;
#X obj 246 400 spigot;
#X obj 236 340 >= 1;
#X obj 270 340 <= 25;
#X floatatom 231 422 5 0 0 0 - - -;
#X obj 231 606 *~ 0.3;
#X obj 272 510 line~;
#X obj 231 576 *~;
#X obj 231 546 osc~;
#X floatatom 227 520 5 0 0 0 - - -;
#X msg 272 486 \$1 100;
#X obj 286 654 dac~ 2;
#X obj 74 653 dac~ 1;
#X connect 0 0 2 0;
#X connect 0 0 2 1;
#X connect 1 0 22 0;
#X connect 1 0 13 1;
#X connect 2 0 5 0;
#X connect 2 0 1 0;
#X connect 3 0 0 0;
#X connect 4 0 0 0;
#X connect 6 0 7 0;
#X connect 6 0 7 1;
#X connect 7 0 8 0;
#X connect 7 0 16 0;
#X connect 9 0 6 0;
#X connect 10 0 6 0;
#X connect 11 0 49 0;
#X connect 12 0 13 1;
#X connect 13 0 11 0;
#X connect 14 0 13 0;
#X connect 15 0 14 0;
#X connect 16 0 23 0;
#X connect 16 0 19 1;
#X connect 17 0 49 0;
#X connect 18 0 19 1;
#X connect 19 0 17 0;
#X connect 20 0 19 0;
#X connect 21 0 20 0;
#X connect 22 0 12 0;
#X connect 23 0 18 0;
#X connect 24 0 25 0;
#X connect 24 0 25 1;
#X connect 25 0 26 0;
#X connect 25 0 29 0;
#X connect 27 0 24 0;
#X connect 28 0 24 0;
#X connect 29 0 35 0;
#X connect 29 0 32 1;
#X connect 30 0 48 0;
#X connect 31 0 32 1;
#X connect 32 0 30 0;
#X connect 33 0 32 0;
#X connect 34 0 33 0;
#X connect 35 0 31 0;
#X connect 36 0 38 0;
#X connect 36 0 38 1;
#X connect 37 0 47 0;
#X connect 37 0 44 1;
#X connect 38 0 41 0;
#X connect 38 0 37 0;
#X connect 39 0 36 0;
#X connect 40 0 36 0;
#X connect 42 0 48 0;
#X connect 43 0 44 1;
#X connect 44 0 42 0;
#X connect 45 0 44 0;
#X connect 46 0 45 0;
#X connect 47 0 43 0;
#X restore 442 575 pd spigot_test;
#X text 154 243 y;
#X text 96 242 x;
#X obj 309 481 dac~ 2;
#X obj 37 358 dac~ 1;
#X obj 119 406 dac~ 5;
#X obj 202 452 dac~ 6;
#N canvas 743 192 184 296 random_russle 0;
#X obj 75 93 *~;
#X obj 75 118 *~;
#X obj 75 44 lop~ 1;
#X obj 14 60 lop~ 1;
#X obj 14 9 pink~;
#X obj 14 87 hip~ 700;
#X obj 75 68 *~ 20;
#X obj 75 139 *~ 600;
#X obj 103 228 inlet;
#X obj 60 245 *~;
#X obj 60 269 s~ random_russle;
#X obj 60 200 *~;
#X obj 60 223 *~ 0.1;
#X connect 0 0 1 0;
#X connect 0 0 1 1;
#X connect 1 0 7 0;
#X connect 2 0 6 0;
#X connect 3 0 5 0;
#X connect 4 0 2 0;
#X connect 4 0 3 0;
#X connect 5 0 11 0;
#X connect 6 0 0 0;
#X connect 6 0 0 1;
#X connect 7 0 11 1;
#X connect 8 0 9 1;
#X connect 9 0 10 0;
#X connect 11 0 12 0;
#X connect 12 0 9 0;
#X restore 442 509 pd random_russle;
#N canvas 860 151 547 439 pan 0;
#X obj 318 22 inlet;
#X obj 358 21 inlet;
#X obj 321 96 hsl 128 20 0 450 0 1 empty empty pan_position 6 10 1
11 -262131 -1 -1 500 0;
#X obj 111 345 square_root_pan~;
#X floatatom 83 27 5 0 0 0 - - -;
#X floatatom 318 72 5 0 0 0 - - -;
#X obj 318 47 expr ($f1+$f2)/2;
#N canvas 831 183 607 568 pan_2 0;
#X floatatom 108 114 5 0 0 0 - - -;
#X obj 75 203 tgl 15 0 empty empty empty 17 7 0 10 -262144 -1 -1 0
129;
#X obj 75 141 spigot;
#X obj 65 81 >= 1;
#X floatatom 60 163 5 0 0 0 - - -;
#X floatatom 202 115 5 0 0 0 - - -;
#X obj 169 143 spigot;
#X floatatom 164 171 5 0 0 0 - - -;
#X obj 170 205 tgl 15 0 empty empty empty 17 7 0 10 -262144 -1 -1 0
240;
#X obj 99 81 <= 225;
#X obj 168 81 >= 225;
#X obj 212 81 <= 450;
#X obj 102 26 inlet;
#N canvas 918 23 610 500 random_russle 0;
#X obj 82 265 *~;
#X obj 129 153 *~;
#X obj 129 178 *~;
#X obj 128 104 lop~ 1;
#X obj 82 329 outlet~;
#X obj 36 120 lop~ 1;
#X obj 65 52 pink~;
#X obj 36 144 hip~ 700;
#X obj 128 128 *~ 20;
#X obj 115 213 *~ 600;
#X obj 82 296 *~ 0.1;
#X obj 144 246 inlet;
#X connect 0 0 10 0;
#X connect 1 0 2 0;
#X connect 1 0 2 1;
#X connect 2 0 9 0;
#X connect 3 0 8 0;
#X connect 5 0 7 0;
#X connect 6 0 3 0;
#X connect 6 0 5 0;
#X connect 7 0 0 0;
#X connect 8 0 1 0;
#X connect 8 0 1 1;
#X connect 9 0 0 1;
#X connect 10 0 4 0;
#X connect 11 0 0 1;
#X restore 31 269 pd random_russle;
#X obj 104 393 dac~ 1 2;
#N canvas 918 23 610 500 random_russle 0;
#X obj 82 265 *~;
#X obj 129 153 *~;
#X obj 129 178 *~;
#X obj 128 104 lop~ 1;
#X obj 82 329 outlet~;
#X obj 36 120 lop~ 1;
#X obj 65 52 pink~;
#X obj 36 144 hip~ 700;
#X obj 128 128 *~ 20;
#X obj 115 213 *~ 600;
#X obj 82 296 *~ 0.1;
#X obj 144 246 inlet;
#X connect 0 0 10 0;
#X connect 1 0 2 0;
#X connect 1 0 2 1;
#X connect 2 0 9 0;
#X connect 3 0 8 0;
#X connect 5 0 7 0;
#X connect 6 0 3 0;
#X connect 6 0 5 0;
#X connect 7 0 0 0;
#X connect 8 0 1 0;
#X connect 8 0 1 1;
#X connect 9 0 0 1;
#X connect 10 0 4 0;
#X connect 11 0 0 1;
#X restore 173 270 pd random_russle;
#X obj 166 342 inlet~;
#X obj 102 336 inlet~;
#X connect 0 0 2 0;
#X connect 0 0 2 1;
#X connect 1 0 13 0;
#X connect 2 0 4 0;
#X connect 2 0 1 0;
#X connect 3 0 0 0;
#X connect 5 0 6 0;
#X connect 5 0 6 1;
#X connect 6 0 7 0;
#X connect 6 0 8 0;
#X connect 8 0 15 0;
#X connect 9 0 0 0;
#X connect 10 0 5 0;
#X connect 11 0 5 0;
#X connect 12 0 3 0;
#X connect 12 0 9 0;
#X connect 12 0 10 0;
#X connect 12 0 11 0;
#X connect 16 0 14 1;
#X connect 17 0 14 0;
#X restore 415 392 pd pan_2;
#X obj 135 384 dac~ 1 2;
#X floatatom 118 124 5 0 0 0 - - -;
#X obj 85 213 tgl 15 0 empty empty empty 17 7 0 10 -262144 -1 -1 1
1;
#X obj 85 151 spigot;
#X floatatom 70 173 5 0 0 0 - - -;
#X floatatom 212 125 5 0 0 0 - - -;
#X obj 179 153 spigot;
#X floatatom 174 181 5 0 0 0 - - -;
#X obj 180 215 tgl 15 0 empty empty empty 17 7 0 10 -262144 -1 -1 0
1;
#X obj 109 91 <= 225;
#X obj 178 91 >= 225;
#X obj 222 91 <= 450;
#N canvas 918 23 610 500 random_russle 0;
#X obj 82 265 *~;
#X obj 129 153 *~;
#X obj 129 178 *~;
#X obj 128 104 lop~ 1;
#X obj 82 329 outlet~;
#X obj 36 120 lop~ 1;
#X obj 65 52 pink~;
#X obj 36 144 hip~ 700;
#X obj 128 128 *~ 20;
#X obj 115 213 *~ 600;
#X obj 82 296 *~ 0.1;
#X obj 144 246 inlet;
#X connect 0 0 10 0;
#X connect 1 0 2 0;
#X connect 1 0 2 1;
#X connect 2 0 9 0;
#X connect 3 0 8 0;
#X connect 5 0 7 0;
#X connect 6 0 3 0;
#X connect 6 0 5 0;
#X connect 7 0 0 0;
#X connect 8 0 1 0;
#X connect 8 0 1 1;
#X connect 9 0 0 1;
#X connect 10 0 4 0;
#X connect 11 0 10 1;
#X restore 41 279 pd random_russle;
#N canvas 918 23 610 500 random_russle 0;
#X obj 82 265 *~;
#X obj 129 153 *~;
#X obj 129 178 *~;
#X obj 128 104 lop~ 1;
#X obj 82 329 outlet~;
#X obj 36 120 lop~ 1;
#X obj 65 52 pink~;
#X obj 36 144 hip~ 700;
#X obj 128 128 *~ 20;
#X obj 115 213 *~ 600;
#X obj 82 296 *~ 0.1;
#X obj 144 246 inlet;
#X connect 0 0 10 0;
#X connect 1 0 2 0;
#X connect 1 0 2 1;
#X connect 2 0 9 0;
#X connect 3 0 8 0;
#X connect 5 0 7 0;
#X connect 6 0 3 0;
#X connect 6 0 5 0;
#X connect 7 0 0 0;
#X connect 8 0 1 0;
#X connect 8 0 1 1;
#X connect 9 0 0 1;
#X connect 10 0 4 0;
#X connect 11 0 10 1;
#X restore 183 280 pd random_russle;
#X obj 75 91 >= 0;
#X connect 0 0 6 0;
#X connect 1 0 6 1;
#X connect 2 0 3 1;
#X connect 2 0 4 0;
#X connect 4 0 17 0;
#X connect 4 0 18 0;
#X connect 4 0 19 0;
#X connect 4 0 22 0;
#X connect 5 0 2 0;
#X connect 6 0 5 0;
#X connect 9 0 11 0;
#X connect 9 0 11 1;
#X connect 10 0 20 0;
#X connect 11 0 12 0;
#X connect 11 0 10 0;
#X connect 13 0 14 0;
#X connect 13 0 14 1;
#X connect 14 0 15 0;
#X connect 14 0 16 0;
#X connect 16 0 21 0;
#X connect 17 0 9 0;
#X connect 18 0 13 0;
#X connect 19 0 13 0;
#X connect 20 0 3 0;
#X connect 21 0 3 0;
#X connect 22 0 9 0;
#X restore 442 554 pd pan;
#X obj 442 532 r~ random_russle;
#N canvas 844 199 99 186 back_left 0;
#X obj 23 18 inlet;
#X obj 23 146 outlet~;
#X floatatom 23 40 5 0 0 0 - - -;
#N canvas 506 69 314 404 fire 0;
#N canvas 821 69 139 404 crackles 0;
#X obj 10 350 *~;
#X obj 23 60 env~;
#X obj 23 36 lop~ 1;
#X msg 74 126 bang;
#X obj 23 83 moses 50;
#X obj 74 104 moses 51;
#X obj 74 149 random 30;
#X obj 74 193 line~;
#X msg 74 172 1 \, 0 \$1;
#X obj 74 221 *~;
#X obj 42 281 + 1500;
#X obj 10 305 bp~ 4000 1;
#X obj 41 259 * 500;
#X obj 10 375 outlet~;
#X obj 9 8 inlet~;
#X connect 0 0 13 0;
#X connect 1 0 4 0;
#X connect 2 0 1 0;
#X connect 3 0 6 0;
#X connect 4 1 5 0;
#X connect 5 0 3 0;
#X connect 6 0 8 0;
#X connect 6 0 12 0;
#X connect 7 0 9 0;
#X connect 7 0 9 1;
#X connect 8 0 7 0;
#X connect 9 0 0 1;
#X connect 10 0 11 1;
#X connect 11 0 0 0;
#X connect 12 0 10 0;
#X connect 14 0 2 0;
#X connect 14 0 11 0;
#X restore 34 -103 pd crackles;
#N canvas 505 497 137 224 hissing 0;
#X obj 13 160 *~;
#X obj 28 30 lop~ 1;
#X obj 29 80 *~;
#X obj -40 30 hip~ 1000;
#X obj 28 106 *~;
#X obj 29 53 *~ 10;
#X obj 28 130 *~ 600;
#X obj 12 194 outlet~;
#X obj 18 -1 inlet~;
#X connect 0 0 7 0;
#X connect 1 0 5 0;
#X connect 2 0 4 0;
#X connect 2 0 4 1;
#X connect 3 0 0 0;
#X connect 4 0 6 0;
#X connect 5 0 2 0;
#X connect 5 0 2 1;
#X connect 6 0 0 1;
#X connect 8 0 1 0;
#X connect 8 0 3 0;
#X restore 126 -103 pd hissing;
#N canvas 646 496 127 200 lapping 0;
#X obj 21 109 clip~ -0.9 0.9;
#X obj 21 129 hip~ 25;
#X obj 21 86 hip~ 25;
#X obj 21 40 bp~ 30 5;
#X obj 21 65 *~ 100;
#X obj 21 153 *~ 0.6;
#X obj 20 177 outlet~;
#X obj 21 12 inlet~;
#X connect 0 0 1 0;
#X connect 1 0 5 0;
#X connect 2 0 0 0;
#X connect 3 0 4 0;
#X connect 4 0 2 0;
#X connect 5 0 6 0;
#X connect 7 0 3 0;
#X restore 223 -102 pd lapping;
#X obj 5 -142 noise~;
#X obj 126 -82 *~;
#X obj 223 -81 *~;
#X obj 34 -82 *~;
#X obj 262 -251 vsl 15 128 0 1 0 0 empty empty empty 0 -9 0 10 -262144
-1 -1 2692 1;
#X obj 177 -251 vsl 15 128 0 1 0 0 empty empty empty 0 -9 0 10 -262144
-1 -1 3391 1;
#X obj 77 -251 vsl 15 128 0 1 0 0 empty empty empty 0 -9 0 10 -262144
-1 -1 292 1;
#X obj 126 -46 bp~ 1200 0.6;
#X floatatom 262 -276 5 0 0 0 - - -;
#X floatatom 177 -275 5 0 0 0 - - -;
#X floatatom 77 -274 5 0 0 0 - - -;
#X obj 177 -322 loadbang;
#X obj 126 -21 *~;
#X obj 156 -26 inlet;
#X msg 77 -296 0.023;
#X msg 177 -296 0.267;
#X msg 262 -297 0.212;
#X obj 126 5 s~ fire;
#X obj 178 -348 tgl 15 0 empty empty empty 17 7 0 10 -262144 -1 -1
0 1;
#X msg 177 -368 1;
#X connect 0 0 6 0;
#X connect 1 0 4 0;
#X connect 2 0 5 0;
#X connect 3 0 0 0;
#X connect 3 0 1 0;
#X connect 3 0 2 0;
#X connect 4 0 10 0;
#X connect 5 0 10 0;
#X connect 6 0 10 0;
#X connect 7 0 5 1;
#X connect 8 0 4 1;
#X connect 9 0 6 1;
#X connect 10 0 15 0;
#X connect 11 0 7 0;
#X connect 12 0 8 0;
#X connect 13 0 9 0;
#X connect 14 0 19 0;
#X connect 14 0 18 0;
#X connect 14 0 17 0;
#X connect 15 0 20 0;
#X connect 16 0 15 1;
#X connect 17 0 13 0;
#X connect 18 0 12 0;
#X connect 19 0 11 0;
#X connect 21 0 14 0;
#X connect 22 0 21 0;
#X connect 22 0 14 0;
#X restore 23 102 pd fire;
#X floatatom 23 81 5 0 0 0 - - -;
#X obj 23 122 r~ fire;
#X obj 23 60 smooth;
#X connect 0 0 2 0;
#X connect 2 0 6 0;
#X connect 4 0 3 0;
#X connect 5 0 1 0;
#X connect 6 0 4 0;
#X restore 119 383 pd back_left;
#N canvas 436 269 126 242 front_left 0;
#X obj 25 16 inlet;
#X obj 25 205 outlet~;
#X floatatom 25 37 5 0 0 0 - - -;
#N canvas 803 113 136 231 mainwind 0;
#X obj 36 23 noise~;
#X obj 36 48 lop~ 50;
#X obj 36 182 s~ mainwind;
#X obj 36 73 lop~ 40;
#X obj 36 97 hip~ 200;
#X obj 36 124 *~;
#X obj 36 153 *~;
#X obj 70 124 inlet;
#X connect 0 0 1 0;
#X connect 1 0 3 0;
#X connect 3 0 4 0;
#X connect 4 0 5 0;
#X connect 5 0 6 0;
#X connect 6 0 2 0;
#X connect 7 0 6 1;
#X restore 25 99 pd mainwind;
#X obj 33 180 r~ gushwind;
#N canvas 938 111 130 325 gushwind 0;
#X obj 25 39 +~ 0.25;
#X obj 50 86 noise~;
#X obj 50 156 +~ 0.5;
#X obj 25 181 *~;
#X obj 25 62 +~ 0.5;
#X obj 25 266 s~ gushwind;
#N canvas 844 285 123 220 random 0;
#X obj 24 117 bng 15 250 50 0 empty empty empty 17 7 0 10 -262144 -1
-1;
#X obj 24 64 tgl 15 0 empty empty empty 17 7 0 10 -262144 -1 -1 1 1
;
#X obj 24 165 outlet;
#X obj 24 13 loadbang;
#X msg 24 38 1;
#X obj 24 139 random 2;
#X obj 24 88 metro 1000;
#X connect 0 0 5 0;
#X connect 1 0 6 0;
#X connect 3 0 4 0;
#X connect 4 0 1 0;
#X connect 5 0 2 0;
#X connect 6 0 0 0;
#X restore 274 111 pd random;
#X obj 50 132 hip~ 250;
#X obj 50 109 lop~ 100;
#X obj 227 202 *~;
#X obj 235 176 line~;
#X msg 235 145 1 100;
#X obj 25 17 osc~ 0.1;
#X obj 25 231 *~;
#X obj 40 205 inlet;
#X connect 0 0 4 0;
#X connect 1 0 8 0;
#X connect 2 0 3 1;
#X connect 3 0 13 0;
#X connect 4 0 3 0;
#X connect 7 0 2 0;
#X connect 8 0 7 0;
#X connect 10 0 9 1;
#X connect 11 0 10 0;
#X connect 12 0 0 0;
#X connect 13 0 5 0;
#X connect 14 0 13 1;
#X restore 25 119 pd gushwind;
#X obj 25 159 r~ wind;
#N canvas 695 114 107 228 wind 0;
#X obj 21 15 r~ mainwind;
#X obj 36 105 cos~;
#X obj 36 61 *~ 0.6;
#X obj 36 83 +~ 0.4;
#X obj 36 39 sig~ 1;
#X obj 21 166 *~;
#X obj 21 197 s~ wind;
#X obj 36 131 bp~ 500 1;
#X connect 0 0 5 0;
#X connect 1 0 7 0;
#X connect 2 0 3 0;
#X connect 3 0 1 0;
#X connect 4 0 2 0;
#X connect 5 0 6 0;
#X connect 7 0 5 1;
#X restore 25 139 pd wind;
#X floatatom 25 79 5 0 0 0 - - -;
#X obj 25 57 smooth;
#X connect 0 0 2 0;
#X connect 2 0 9 0;
#X connect 4 0 1 0;
#X connect 6 0 1 0;
#X connect 8 0 3 0;
#X connect 8 0 5 0;
#X connect 9 0 8 0;
#X restore 37 335 pd front_left;
#N canvas 500 242 96 246 back_right 0;
#X floatatom 16 -4692 5 0 0 0 - - -;
#N canvas 485 222 171 385 waves 0;
#X obj 44 254 *~;
#X obj 102 116 noise~;
#X obj 102 209 +~ 0.5;
#X obj 12 102 bng 15 250 50 0 empty empty empty 17 7 0 10 -262144 -1
-1;
#X obj 12 52 tgl 15 0 empty empty empty 17 7 0 10 -262144 -1 -1 1 1
;
#X obj 102 183 hip~ 500;
#X obj 102 153 lop~ 500;
#X obj 12 9 loadbang;
#X msg 12 31 1;
#X obj 44 350 s~ waves;
#X obj 12 210 +~ 0.5;
#X obj 12 76 metro 1000;
#X obj 12 127 random 1;
#X obj 12 181 osc~ 50;
#X obj 44 318 *~;
#X obj 87 301 inlet;
#X obj 44 285 *~ 0.1;
#X connect 0 0 16 0;
#X connect 1 0 6 0;
#X connect 2 0 0 1;
#X connect 3 0 12 0;
#X connect 4 0 11 0;
#X connect 5 0 2 0;
#X connect 6 0 5 0;
#X connect 7 0 8 0;
#X connect 8 0 4 0;
#X connect 10 0 0 0;
#X connect 11 0 3 0;
#X connect 12 0 13 0;
#X connect 13 0 10 0;
#X connect 14 0 9 0;
#X connect 15 0 14 1;
#X connect 16 0 14 0;
#X restore 16 -4672 pd waves;
#N canvas 657 221 169 388 waves2 0;
#X obj 43 253 *~;
#X obj 101 115 noise~;
#X obj 101 208 +~ 0.5;
#X obj 11 101 bng 15 250 50 0 empty empty empty 17 7 0 10 -262144 -1
-1;
#X obj 11 51 tgl 15 0 empty empty empty 17 7 0 10 -262144 -1 -1 1 1
;
#X obj 101 182 hip~ 500;
#X obj 101 152 lop~ 500;
#X obj 11 8 loadbang;
#X msg 11 29 1;
#X obj 11 209 +~ 0.5;
#X obj 11 180 osc~ 50;
#X obj 43 349 s~ waves2;
#X obj 11 75 metro 500;
#X obj 11 126 random 2 5;
#X obj 43 307 *~;
#X obj 89 290 inlet;
#X obj 43 281 *~ 0.1;
#X connect 0 0 16 0;
#X connect 1 0 6 0;
#X connect 2 0 0 1;
#X connect 3 0 13 0;
#X connect 4 0 12 0;
#X connect 5 0 2 0;
#X connect 6 0 5 0;
#X connect 7 0 8 0;
#X connect 8 0 4 0;
#X connect 9 0 0 0;
#X connect 10 0 9 0;
#X connect 12 0 3 0;
#X connect 13 0 10 0;
#X connect 14 0 11 0;
#X connect 15 0 14 1;
#X connect 16 0 14 0;
#X restore 16 -4651 pd waves2;
#X obj 24 -4610 r~ waves;
#X obj 16 -4631 r~ waves2;
#X floatatom 16 -4732 5 0 0 0 - - -;
#X obj 16 -4712 smooth;
#X obj 16 -4757 inlet;
#X obj 16 -4576 outlet~;
#X connect 0 0 1 0;
#X connect 0 0 2 0;
#X connect 3 0 8 0;
#X connect 4 0 8 0;
#X connect 5 0 6 0;
#X connect 6 0 0 0;
#X connect 7 0 5 0;
#X restore 202 429 pd back_right;
#N canvas 787 123 87 186 front_right 0;
#X floatatom -295 -2606 5 0 0 0 - - -;
#X obj -295 -2565 r~ insect;
#N canvas 529 183 297 472 insect 0;
#X obj 23 300 *~;
#X obj 23 202 cos~;
#X obj 23 179 +~ 0.25;
#X obj 23 225 clip~ 0 1;
#X obj 38 267 osc~ 12342;
#X obj 52 247 osc~ 5134;
#X obj 40 114 wrap~;
#X obj 23 157 +~;
#X obj -86 76 clip~ 0 1;
#X obj -86 114 wrap~;
#X obj 40 77 clip~ 1 4;
#X obj 23 324 *~ 0.05;
#X obj 22 374 *~;
#X obj 22 401 *~;
#X obj 52 377 inlet~;
#X obj 22 436 s~ insect;
#X obj 37 353 tgl 15 0 empty empty empty 17 7 0 10 -262144 -1 -1 1
1;
#X obj 85 314 loadbang;
#X msg 85 336 1;
#X obj 6 37 *~ 47;
#X floatatom 65 53 5 0 0 0 - - -;
#X floatatom 91 32 5 0 0 0 - - -;
#X floatatom -62 48 5 0 0 0 - - -;
#X floatatom -36 27 5 0 0 0 - - -;
#X obj 6 13 phasor~ 0.7;
#X connect 0 0 11 0;
#X connect 1 0 3 0;
#X connect 2 0 1 0;
#X connect 3 0 0 0;
#X connect 4 0 0 1;
#X connect 5 0 0 1;
#X connect 6 0 7 1;
#X connect 7 0 2 0;
#X connect 8 0 9 0;
#X connect 9 0 7 0;
#X connect 10 0 6 0;
#X connect 11 0 12 0;
#X connect 12 0 13 0;
#X connect 13 0 15 0;
#X connect 14 0 13 1;
#X connect 16 0 12 1;
#X connect 17 0 18 0;
#X connect 18 0 16 0;
#X connect 19 0 8 0;
#X connect 19 0 10 0;
#X connect 20 0 10 1;
#X connect 21 0 10 2;
#X connect 22 0 8 1;
#X connect 23 0 8 2;
#X connect 24 0 19 0;
#X restore -295 -2585 pd insect;
#X floatatom -295 -2647 5 0 0 0 - - -;
#X obj -295 -2627 smooth;
#X obj -295 -2670 inlet;
#X obj -295 -2538 outlet~;
#X connect 0 0 2 0;
#X connect 1 0 6 0;
#X connect 3 0 4 0;
#X connect 4 0 0 0;
#X connect 5 0 3 0;
#X restore 309 458 pd front_right;
#N canvas 642 191 261 141 all_speakers 0;
#N canvas 1199 125 224 536 transform_1 0;
#X floatatom 50 60 5 0 0 0 - - -;
#X obj 50 85 spigot;
#X floatatom 73 110 5 0 0 0 - - -;
#X obj 50 30 >= 0;
#X obj 84 30 <= 9;
#X floatatom 16 249 5 0 0 0 - - -;
#X obj 16 271 phasor~;
#X obj 17 347 *~;
#X obj 17 377 *~ 0.5;
#X floatatom 68 307 5 0 0 0 - - -;
#X obj 68 330 osc~ 1;
#X obj 50 118 tgl 15 0 empty empty empty 17 7 0 10 -262144 -1 -1 0
1;
#X obj 62 188 bng 15 250 50 0 empty empty empty 17 7 0 10 -262144 -1
-1;
#X obj 114 251 bng 15 250 50 0 empty empty empty 17 7 0 10 -262144
-1 -1;
#X obj 16 210 counter 500 1000;
#X obj 68 283 counter 700 1200;
#X obj 16 164 metro 50;
#X obj 17 411 freeverb~;
#X obj 49 -1 inlet;
#X obj 17 445 outlet~;
#X connect 0 0 1 0;
#X connect 0 0 1 1;
#X connect 1 0 2 0;
#X connect 1 0 11 0;
#X connect 3 0 0 0;
#X connect 4 0 0 0;
#X connect 5 0 6 0;
#X connect 6 0 7 0;
#X connect 7 0 8 0;
#X connect 8 0 17 0;
#X connect 9 0 10 0;
#X connect 10 0 7 1;
#X connect 11 0 8 1;
#X connect 11 0 16 0;
#X connect 12 0 14 2;
#X connect 13 0 15 2;
#X connect 14 0 5 0;
#X connect 15 0 9 0;
#X connect 16 0 14 0;
#X connect 16 0 15 0;
#X connect 17 0 19 0;
#X connect 17 1 19 0;
#X connect 18 0 3 0;
#X connect 18 0 4 0;
#X restore 115 51 pd transform_1;
#N canvas 969 124 233 535 transform_2 0;
#X msg 51 167 \$1 200;
#X msg 103 213 \$1 1000;
#X obj 51 193 line;
#X obj 51 218 mtof;
#X obj 26 283 bp~ 880 2;
#X obj 103 237 line;
#X obj 103 266 *;
#X obj 103 304 +;
#X msg 103 189 16;
#X obj 26 252 noise~;
#X obj 16 63 tgl 15 0 empty empty empty 17 7 0 10 -262144 -1 -1 0 1
;
#X floatatom 51 144 5 0 0 0 - - -;
#X obj 51 117 counter 50 125;
#X obj 51 93 metro 300;
#X obj 103 165 loadbang;
#X floatatom 51 12 5 0 0 0 - - -;
#X obj 51 37 spigot;
#X floatatom 74 62 5 0 0 0 - - -;
#X obj 51 -18 >= 0;
#X obj 85 -18 <= 9;
#X obj 50 -49 inlet;
#N canvas 1112 286 450 300 dist 0;
#X obj 39 227 outlet~;
#X obj 39 142 /~;
#X obj 55 114 abs~;
#X obj 39 200 *~;
#X obj 55 175 pow~ 2;
#X obj 40 30 inlet~;
#X obj 133 62 inlet~;
#X text 97 30 audio in;
#X obj 133 107 +~ 1;
#X text 189 63 distortion (0 to 1);
#X obj 132 83 *~ -1;
#X connect 1 0 3 0;
#X connect 2 0 1 1;
#X connect 2 0 4 1;
#X connect 3 0 0 0;
#X connect 4 0 3 1;
#X connect 5 0 1 0;
#X connect 5 0 2 0;
#X connect 6 0 10 0;
#X connect 8 0 4 0;
#X connect 10 0 8 0;
#X restore 26 372 pd dist;
#X msg 68 324 0;
#X obj 26 402 *~;
#X obj 77 386 hsl 128 15 0 1 0 0 empty empty empty -2 -8 0 10 -262144
-1 -1 1118 1;
#X obj 26 435 outlet~;
#X floatatom 93 421 5 0 0 0 - - -;
#X msg 120 337 0.088;
#X obj 26 318 *~ 1;
#X obj 26 345 *~ 0.3;
#X msg 77 348 1;
#X connect 0 0 2 0;
#X connect 1 0 5 0;
#X connect 2 0 3 0;
#X connect 3 0 4 1;
#X connect 4 0 28 0;
#X connect 5 0 6 0;
#X connect 5 0 6 1;
#X connect 5 0 7 0;
#X connect 6 0 4 2;
#X connect 7 0 28 1;
#X connect 8 0 1 0;
#X connect 9 0 4 0;
#X connect 10 0 13 0;
#X connect 10 0 28 1;
#X connect 10 0 29 1;
#X connect 10 0 22 0;
#X connect 11 0 0 0;
#X connect 12 0 11 0;
#X connect 13 0 12 0;
#X connect 14 0 8 0;
#X connect 14 0 27 0;
#X connect 14 0 30 0;
#X connect 15 0 16 0;
#X connect 15 0 16 1;
#X connect 16 0 17 0;
#X connect 16 0 10 0;
#X connect 18 0 15 0;
#X connect 19 0 15 0;
#X connect 20 0 18 0;
#X connect 20 0 19 0;
#X connect 21 0 23 0;
#X connect 22 0 21 1;
#X connect 23 0 25 0;
#X connect 24 0 23 1;
#X connect 24 0 26 0;
#X connect 27 0 24 0;
#X connect 27 0 26 0;
#X connect 28 0 29 0;
#X connect 29 0 21 0;
#X connect 30 0 21 1;
#X restore 22 51 pd transform_2;
#X obj 115 89 dac~ 1 2 4 5 6;
#X obj 115 25 inlet x;
#X obj 22 25 inlet y;
#X connect 0 0 2 0;
#X connect 0 0 2 1;
#X connect 0 0 2 2;
#X connect 0 0 2 3;
#X connect 0 0 2 4;
#X connect 1 0 2 0;
#X connect 1 0 2 1;
#X connect 1 0 2 2;
#X connect 1 0 2 3;
#X connect 1 0 2 4;
#X connect 3 0 0 0;
#X connect 4 0 1 0;
#X restore 151 285 pd all_speakers;
#X text 26 558 dac~ 1 = front left dac~ 2 = front right dac~ 3 = centre
dac~ 4 = sub dac~ 5 = back left dac~ 6 = back right;
#X text 441 485 Not Used;
#X connect 0 0 7 0;
#X connect 1 0 7 0;
#X connect 2 0 10 0;
#X connect 2 0 25 1;
#X connect 3 0 5 0;
#X connect 4 0 5 0;
#X connect 5 0 7 0;
#X connect 6 0 10 1;
#X connect 6 0 25 0;
#X connect 7 0 9 0;
#X connect 8 0 2 0;
#X connect 8 1 6 0;
#X connect 9 0 8 0;
#X connect 10 0 22 0;
#X connect 10 1 21 0;
#X connect 10 2 23 0;
#X connect 10 3 24 0;
#X connect 21 0 16 0;
#X connect 22 0 15 0;
#X connect 23 0 17 0;
#X connect 24 0 14 0;
